<?xml version="1.0" encoding="UTF-8"?>
<svg version="1.1" xmlns="http://www.w3.org/2000/svg" width="512" height="512">
<path d="M0 0 C11.60106474 5.91504265 21.08420507 17.87331303 30.23828125 26.96484375 C30.97308401 27.69432283 31.70788677 28.42380192 32.46495628 29.17538643 C36.34480584 33.02869852 40.221102 36.88554884 44.0949707 40.74487305 C47.28370085 43.92021991 50.47956218 47.08811835 53.68188477 50.24975586 C57.57550402 54.09394252 61.45659603 57.95036728 65.32912254 61.81579781 C66.79718381 63.27717661 68.26947233 64.73432244 69.74617958 66.18696404 C80.20079088 76.48066416 88.74313048 85.15954268 88.875 100.625 C88.85815479 118.43038604 77.85267926 127.4704554 65.92358398 139.55151367 C64.96736852 140.52445594 64.01657396 141.50275317 63.07104492 142.48608398 C61.67316182 143.93906787 60.25664237 145.37404817 58.83984375 146.80859375 C58.01734131 147.65091553 57.19483887 148.4932373 56.34741211 149.36108398 C49.63714713 154.66541109 41.9562048 155.27717312 33.71484375 156.16796875 C32.58534805 156.29690018 31.45585236 156.4258316 30.29212952 156.55867004 C27.90828702 156.82822902 25.52386119 157.09267287 23.13891602 157.35229492 C19.53424325 157.74625748 15.93223955 158.15994073 12.33007812 158.57617188 C-18.07853012 162.01548996 -18.07853012 162.01548996 -28.4375 158.5625 C-90.1475 220.2725 -151.8575 281.9825 -215.4375 345.5625 C-210.94130438 350.89402189 -210.94130438 350.89402189 -206.17358398 355.8605957 C-205.60957382 356.40839188 -205.04556366 356.95618805 -204.46446228 357.52058411 C-203.87677567 358.08742416 -203.28908905 358.65426422 -202.68359375 359.23828125 C-201.40369706 360.49092388 -200.12441893 361.7441988 -198.84570312 362.99804688 C-196.86145603 364.93915284 -194.87382202 366.87613541 -192.87524414 368.80249023 C-178.69549217 382.49334545 -178.69549217 382.49334545 -175.4375 391.5625 C-175.004375 392.635 -174.57125 393.7075 -174.125 394.8125 C-171.74011358 407.8209714 -173.72823421 418.70041197 -180.55245972 429.85473633 C-183.96654817 434.75889926 -188.17005613 438.8433466 -192.41015625 443.03125 C-193.3800062 444.00125554 -194.34918467 444.97193286 -195.31773376 445.9432373 C-197.3395807 447.96645902 -199.36812829 449.98262162 -201.40209961 451.99365234 C-203.9734646 454.53676614 -206.52897809 457.09513728 -209.08019638 459.65844154 C-229.33948298 479.99464816 -229.33948298 479.99464816 -240.4375 487.5625 C-241.12497314 488.04170898 -241.81244629 488.52091797 -242.52075195 489.01464844 C-279.63868797 514.0117227 -321.3573318 512.71654102 -363.83786011 507.14098358 C-365.8648297 506.87632791 -367.89251125 506.61784062 -369.92041016 506.3604126 C-373.78271117 505.86698581 -377.63948423 505.33696942 -381.49609375 504.80078125 C-383.23039894 504.57693001 -383.23039894 504.57693001 -384.9997406 504.34855652 C-395.56404144 502.80753158 -404.80254046 499.27668956 -411.4375 490.5625 C-416.35119754 482.74130215 -416.88937631 473.44816768 -418 464.5 C-418.21027135 462.87122012 -418.42146221 461.24255869 -418.63354492 459.61401367 C-418.94971958 457.17735184 -419.26386412 454.74052221 -419.57136536 452.30274963 C-420.13107261 447.86613394 -420.73971788 443.44330613 -421.421875 439.0234375 C-427.66819901 397.43059976 -422.22278305 358.2547639 -397.4375 323.5625 C-388.7702138 312.33752433 -378.65101277 302.40362644 -368.63989258 292.39428711 C-365.86671637 289.6167032 -363.10999191 286.82344264 -360.35351562 284.02929688 C-358.56868845 282.23860589 -356.78291367 280.4488588 -354.99609375 278.66015625 C-354.18538925 277.83508072 -353.37468475 277.01000519 -352.53941345 276.15992737 C-343.00093935 266.69626003 -332.74774831 260.63257836 -319.125 260.125 C-303.62725044 260.54533991 -294.10193465 267.53904992 -283.65625 278.1484375 C-282.95729614 278.85022125 -282.25834229 279.552005 -281.53820801 280.27505493 C-279.33318057 282.49116989 -277.1352567 284.71417677 -274.9375 286.9375 C-273.43275814 288.45228644 -271.927554 289.96661382 -270.421875 291.48046875 C-266.75505487 295.16919742 -263.0945833 298.86411885 -259.4375 302.5625 C-254.28429045 298.25022451 -249.46402727 293.72947007 -244.72425842 288.96951294 C-243.97915447 288.22526341 -243.23405052 287.48101389 -242.46636766 286.71421134 C-239.98439528 284.23387865 -237.50600058 281.75000252 -235.02758789 279.26611328 C-233.24354169 277.48178486 -231.45927496 275.6976769 -229.67480469 273.91377258 C-225.84069016 270.07988536 -222.00810776 266.24447693 -218.17692757 262.40765762 C-212.63776992 256.86035222 -207.09583336 251.31582985 -201.55322772 245.77196978 C-192.55948651 236.7760432 -183.56797797 227.77788852 -174.57788086 218.77832031 C-165.84793693 210.03918895 -157.11693706 201.30111477 -148.38452148 192.56445312 C-147.84571435 192.02538327 -147.30690721 191.48631341 -146.75177259 190.9309081 C-144.04856737 188.22639778 -141.34534144 185.52190816 -138.64210522 182.81742883 C-116.23735951 160.40232652 -93.83627784 137.98356588 -71.4375 115.5625 C-71.76143234 114.63272842 -72.08536469 113.70295685 -72.41911316 112.74501038 C-76.42903884 100.21378984 -72.51586591 84.0090324 -71.03881836 71.22631836 C-70.62327392 67.60997848 -70.22791689 63.99179752 -69.83398438 60.37304688 C-69.57152012 58.05194646 -69.30788946 55.73097758 -69.04296875 53.41015625 C-68.92720993 52.33919205 -68.81145111 51.26822784 -68.69218445 50.16481018 C-67.49848895 40.08860844 -65.43822945 33.77364621 -58.15234375 26.61328125 C-57.22875816 25.68252022 -57.22875816 25.68252022 -56.28651428 24.73295593 C-54.98726618 23.43032333 -53.68175418 22.13391126 -52.37036133 20.84350586 C-50.38728419 18.88711886 -48.43221118 16.90560086 -46.47851562 14.91992188 C-33.70895066 2.11672453 -18.53386791 -6.5134999 0 0 Z M-14.4375 57.5625 C-17.55567215 60.68067215 -17.34767239 64.26014715 -17.8671875 68.5390625 C-18.22892856 71.46374628 -18.83793 74.23242084 -19.5703125 77.0859375 C-21.17864335 84.17761209 -21.78491054 89.9708246 -17.984375 96.44140625 C-14.27416361 101.43679554 -10.2966574 105.28300923 -4.4375 107.5625 C6.36250192 108.85856166 18.57202928 106.85480441 28.5625 102.5625 C28.87769059 99.53085631 28.87769059 99.53085631 26.9747467 97.60725403 C25.86008278 96.49805855 25.86008278 96.49805855 24.72290039 95.36645508 C23.8852565 94.52581009 23.04761261 93.6851651 22.18458557 92.81904602 C21.2690239 91.91583115 20.35346222 91.01261627 19.41015625 90.08203125 C18.48029404 89.15404221 17.55043182 88.22605316 16.59239197 87.26994324 C14.62381341 85.30596887 12.6504231 83.34701091 10.6730957 81.3918457 C8.13283239 78.87990376 5.60136337 76.35932856 3.07299137 73.83542347 C0.66770218 71.43527849 -1.74225695 69.03985935 -4.15234375 66.64453125 C-5.0658812 65.73524368 -5.97941864 64.82595612 -6.92063904 63.88911438 C-7.76143509 63.05792587 -8.60223114 62.22673737 -9.46850586 61.37036133 C-10.21241074 60.63328445 -10.95631561 59.89620758 -11.72276306 59.13679504 C-13.17230216 57.44978383 -13.17230216 57.44978383 -14.4375 57.5625 Z " fill="#010100" transform="translate(423.4375,1.4375)"/>
<path d="M0 0 C0.98484375 -0.03738281 1.9696875 -0.07476562 2.984375 -0.11328125 C11.26684824 0.9666106 16.63251392 6.13397566 22.25 11.921875 C22.9711499 12.64868469 23.6922998 13.37549438 24.43530273 14.12432861 C26.71650577 16.42776403 28.98333375 18.74476752 31.25 21.0625 C32.80245342 22.63503523 34.35583001 24.20665963 35.91015625 25.77734375 C39.70084544 29.61192579 43.47985806 33.45771987 47.25 37.3125 C45.61343809 40.7865573 43.77377389 42.99758208 41.00390625 45.68359375 C40.16666016 46.50537109 39.32941406 47.32714844 38.46679688 48.17382812 C36.70122934 49.887429 34.93560459 51.60097093 33.16992188 53.31445312 C31.91211914 54.54905273 31.91211914 54.54905273 30.62890625 55.80859375 C29.8613501 56.55294678 29.09379395 57.2972998 28.30297852 58.06420898 C22.70265631 64.19732436 21.79207639 70.34491546 21.921875 78.4140625 C23.0369877 88.26422472 29.98504999 95.16868425 37.25 101.3125 C42.67172542 105.48636799 47.99826449 105.79695632 54.7109375 105.94140625 C65.19227999 104.07882773 71.75412784 97.46372897 78.875 90 C80.23818359 88.60297852 80.23818359 88.60297852 81.62890625 87.17773438 C83.84786739 84.90037952 86.05421023 82.61216629 88.25 80.3125 C91.20259325 81.64482076 93.29796372 83.10502048 95.59399414 85.38183594 C96.224673 86.00298279 96.85535187 86.62412964 97.50514221 87.26409912 C98.17504684 87.93491516 98.84495148 88.6057312 99.53515625 89.296875 C100.23265488 89.9900885 100.9301535 90.683302 101.64878845 91.39752197 C103.12135311 92.86434896 104.59131105 94.33379686 106.05883789 95.80566406 C108.29904313 98.04902418 110.55221692 100.27875261 112.80664062 102.5078125 C114.23779004 103.9366883 115.66815482 105.3663505 117.09765625 106.796875 C117.76958511 107.45959412 118.44151398 108.12231323 119.13380432 108.80511475 C124.47726424 114.20161351 127.67791566 118.77542598 127.6875 126.625 C127.70683594 127.67300781 127.72617188 128.72101563 127.74609375 129.80078125 C126.35155998 139.67232342 120.66010572 145.63351985 113.76171875 152.4296875 C112.81607626 153.37616167 111.87125327 154.32345524 110.92720032 155.27151489 C108.95045617 157.25110409 106.96530323 159.22171454 104.97338867 161.18603516 C102.46144133 163.66420215 99.96990029 166.16174773 97.48377132 168.66578102 C84.794336 181.42988715 72.01638016 193.92928949 55.8125 202.1875 C55.11858154 202.5491626 54.42466309 202.9108252 53.7097168 203.28344727 C46.49049732 206.91383702 39.01622678 209.14700115 31.25 211.3125 C30.21230469 211.66183594 29.17460937 212.01117188 28.10546875 212.37109375 C7.65705471 219.11263654 -15.39541415 214.91217271 -36.24299622 212.15600586 C-40.51818491 211.59198843 -44.79496137 211.07094397 -49.08100891 210.59643555 C-51.09612941 210.3712861 -53.10954097 210.13471865 -55.12280273 209.89355469 C-57.59681624 209.59778143 -60.0729111 209.31875016 -62.55102539 209.05957031 C-68.43619797 208.31362864 -73.24693555 207.53944527 -77.51660156 203.18066406 C-79.94617413 199.50071765 -80.27859274 195.6206586 -80.75 191.3125 C-80.9032373 190.21647461 -81.05647461 189.12044922 -81.21435547 187.99121094 C-81.73873435 184.22693797 -82.21770201 180.45895978 -82.6875 176.6875 C-82.94747065 174.6109428 -83.20785985 172.53443846 -83.46835327 170.45794678 C-83.64286462 169.06596023 -83.81687721 167.67391106 -83.99038696 166.28179932 C-84.51425115 162.10120518 -85.07821705 157.928461 -85.67578125 153.7578125 C-90.61085225 118.6910451 -86.58883952 86.09508339 -65.25 56.875 C-56.36810204 45.33205722 -45.81433793 35.19053687 -35.53759766 24.91479492 C-32.98702507 22.36201384 -30.44458885 19.80130548 -27.90234375 17.24023438 C-26.27392664 15.60888659 -24.64503717 13.97801015 -23.015625 12.34765625 C-22.26033508 11.58518082 -21.50504517 10.82270538 -20.72686768 10.03712463 C-14.18749511 3.52603559 -9.34446041 0.22998024 0 0 Z " fill="#7F8D93" transform="translate(104.75,279.6875)"/>
<path d="M0 0 C5.4012841 2.61542984 9.29355779 5.94504393 13.48473072 10.20049095 C14.17358356 10.88394081 14.86243641 11.56739067 15.57216358 12.27155113 C17.82929713 14.51625441 20.07169477 16.77504707 22.31358814 19.03496361 C23.88614765 20.60736802 25.45937504 22.17910475 27.03323841 23.75020409 C30.3218014 27.03738571 33.60330713 30.33140577 36.87975025 33.63066673 C41.07546815 37.8548029 45.28660618 42.06315657 49.50290871 46.26673508 C52.75048138 49.50734757 55.99063434 52.75529627 59.22851086 56.00559425 C60.77856647 57.56015854 62.33070703 59.11264686 63.88497829 60.66299629 C66.0558886 62.83099031 68.21682655 65.00845989 70.37535572 67.1887722 C71.01590397 67.8248188 71.65645222 68.4608654 72.31641102 69.11618614 C76.82030077 73.69568915 79.80130596 77.62037499 80.54405689 84.19902611 C79.89520542 96.74593459 67.0345231 107.04779048 58.42686939 115.07793236 C51.22211586 121.55976005 45.80760555 123.253438 36.31505299 123.22685814 C32.13492903 123.35345145 28.02723305 123.82978362 23.87608814 124.32011986 C23.04859562 124.41727287 22.2211031 124.51442589 21.36853504 124.61452293 C19.67221456 124.81420538 17.97595123 125.01437389 16.27974415 125.21501732 C12.19632807 125.69016637 8.10930981 126.12743748 4.02061939 126.55449486 C3.29739994 126.63235725 2.57418049 126.71021965 1.8290453 126.79044151 C-8.03382339 127.81510675 -8.03382339 127.81510675 -11.00222301 126.11932945 C-11.69601559 125.55016304 -12.38980816 124.98099663 -13.10462475 124.39458275 C-13.89759457 123.74455284 -14.69056438 123.09452293 -15.50756359 122.42479515 C-48.26278407 94.24215689 -48.26278407 94.24215689 -49.64019299 80.03339195 C-49.7745545 70.50023731 -47.68730048 61.26178447 -45.09632397 52.13677025 C-44.18137876 48.79258096 -43.64889834 45.60372394 -43.34876537 42.14995384 C-42.19024103 28.8821862 -38.46558129 22.52205625 -28.58094311 13.76152611 C-27.43721037 12.67758789 -26.29720997 11.58969753 -25.16102123 10.49785423 C-10.19101937 -3.63827305 -10.19101937 -3.63827305 0 0 Z M-5.89344311 41.32402611 C-9.01161525 44.44219825 -8.8036155 48.02167326 -9.32313061 52.30058861 C-9.68487167 55.22527238 -10.29387311 57.99394695 -11.02625561 60.84746361 C-12.63458645 67.9391382 -13.24085365 73.7323507 -9.44031811 80.20293236 C-5.73010672 85.19832165 -1.75260051 89.04453534 4.10655689 91.32402611 C14.90655881 92.62008776 27.11608618 90.61633052 37.10655689 86.32402611 C37.42174748 83.29238242 37.42174748 83.29238242 35.5188036 81.36878014 C34.40413967 80.25958466 34.40413967 80.25958466 33.26695728 79.12798119 C32.42931339 78.2873362 31.5916695 77.44669121 30.72864246 76.58057213 C29.81308079 75.67735725 28.89751911 74.77414238 27.95421314 73.84355736 C27.02435093 72.91556831 26.09448872 71.98757927 25.13644886 71.03146935 C23.1678703 69.06749498 21.19447999 67.10853701 19.2171526 65.15337181 C16.67688929 62.64142987 14.14542027 60.12085467 11.61704826 57.59694958 C9.21175908 55.19680459 6.80179994 52.80138546 4.39171314 50.40605736 C3.4781757 49.49676979 2.56463825 48.58748222 1.62341785 47.65064049 C0.7826218 46.81945198 -0.05817425 45.98826347 -0.92444897 45.13188744 C-1.66835384 44.39481056 -2.41225872 43.65773369 -3.17870617 42.89832115 C-4.62824527 41.21130994 -4.62824527 41.21130994 -5.89344311 41.32402611 Z " fill="#FC9600" transform="translate(414.893443107605,17.675973892211914)"/>
<path d="M0 0 C3.01409306 1.44304314 5.10472016 2.86591868 7.453125 5.2578125 C8.071875 5.88300781 8.690625 6.50820312 9.328125 7.15234375 C9.96234375 7.80332031 10.5965625 8.45429688 11.25 9.125 C12.22453125 10.11306641 12.22453125 10.11306641 13.21875 11.12109375 C14.81711727 12.74296643 16.41061897 14.3693281 18 16 C16.35601968 20.20842794 13.24971142 23.02273985 10.10287476 26.13763428 C9.18763753 27.05543478 9.18763753 27.05543478 8.25391066 27.9917767 C6.20573712 30.0432476 4.15049129 32.08748299 2.09521484 34.13183594 C0.6265287 35.59995802 -0.84171736 37.06852048 -2.30955505 38.53749084 C-6.29864455 42.52715506 -10.29387827 46.51061513 -14.29022264 50.49301052 C-18.46449472 54.6547951 -22.6331181 58.82222968 -26.80233765 62.98907471 C-34.69957378 70.88009025 -42.60189514 78.76599293 -50.50604475 86.65008283 C-59.50381083 95.62550795 -68.49591055 104.60660074 -77.48753285 113.58818007 C-95.98537926 132.06511135 -114.49034946 150.5348943 -133 169 C-134.10338218 168.0636169 -135.20541029 167.12563812 -136.30688477 166.18701172 C-136.92072525 165.66485077 -137.53456573 165.14268982 -138.16700745 164.60470581 C-140.87952853 162.23001076 -143.41223193 159.69567399 -145.9375 157.125 C-146.43056641 156.62742187 -146.92363281 156.12984375 -147.43164062 155.6171875 C-148.62345992 154.41379715 -149.81208678 153.20724635 -151 152 C-147.10990299 147.34682035 -143.07291486 142.92975444 -138.77371216 138.65345764 C-138.17647052 138.05536158 -137.57922888 137.45726551 -136.963889 136.84104532 C-134.98105544 134.85657712 -132.9946922 132.87568178 -131.00830078 130.89477539 C-129.5786476 129.46540454 -128.14921509 128.03581293 -126.71998596 126.60601807 C-122.85286551 122.73861144 -118.98267596 118.87428951 -115.11191797 115.01052403 C-111.06222859 110.96709818 -107.01538269 106.92082846 -102.9682312 102.87486267 C-95.30996158 95.21969753 -87.64914705 87.56708447 -79.98740947 79.91539043 C-71.26236284 71.20153238 -62.54016537 62.48482483 -53.81820321 53.76787961 C-35.88196523 35.84208601 -17.94216146 17.91986456 0 0 Z " fill="#9F512C" transform="translate(365,129)"/>
<path d="M0 0 C7.70437127 3.73783979 13.66598473 10.22862264 19.6171875 16.21875 C20.60561276 17.20514883 21.5944825 18.19110244 22.58377075 19.17663574 C24.64082754 21.22930212 26.69244276 23.28721271 28.74023438 25.34912109 C31.35590384 27.98194852 33.98490816 30.60098295 36.61810112 33.21627045 C38.65679155 35.24409163 40.688248 37.27903907 42.71762466 39.31617737 C43.68420893 40.28475144 44.65299503 41.25113372 45.62408066 42.2151947 C46.98046875 43.56390936 48.32614674 44.92336885 49.67138672 46.28320312 C50.43699921 47.05120239 51.20261169 47.81920166 51.99142456 48.61047363 C55.67556105 52.99335172 57.61673259 57.11111571 57.33984375 62.92578125 C56.21525112 69.7896742 52.30057988 74.11083128 47.1953125 78.5546875 C41.03307213 82.61167849 33.65163292 82.83189834 26.5 83.625 C25.33758789 83.75398682 24.17517578 83.88297363 22.97753906 84.01586914 C0.19559544 86.43450014 0.19559544 86.43450014 -5.29052734 82.43334961 C-9.14134072 79.20453994 -12.65408681 75.63030164 -16.1875 72.0625 C-16.99380859 71.26392578 -17.80011719 70.46535156 -18.63085938 69.64257812 C-19.40623047 68.86462891 -20.18160156 68.08667969 -20.98046875 67.28515625 C-21.68067139 66.58269775 -22.38087402 65.88023926 -23.10229492 65.15649414 C-28.63404602 58.870381 -28.42824375 54.06295487 -28 46 C-27.68366294 41.07109014 -27.24293905 36.16414492 -26.75 31.25 C-26.58564453 29.35701172 -26.58564453 29.35701172 -26.41796875 27.42578125 C-25.60763415 19.29684575 -24.5880489 13.02253919 -19 6.7578125 C-18.34 6.21898437 -17.68 5.68015625 -17 5.125 C-16.34 4.57070313 -15.68 4.01640625 -15 3.4453125 C-10.06260998 -0.12272325 -6.0051424 -0.96193505 0 0 Z M-5 18 C-8.11817215 21.11817215 -7.91017239 24.69764715 -8.4296875 28.9765625 C-8.79142856 31.90124628 -9.40043 34.66992084 -10.1328125 37.5234375 C-11.74114335 44.61511209 -12.34741054 50.4083246 -8.546875 56.87890625 C-4.83666361 61.87429554 -0.8591574 65.72050923 5 68 C15.80000192 69.29606166 28.00952928 67.29230441 38 63 C38.31519059 59.96835631 38.31519059 59.96835631 36.4122467 58.04475403 C35.29758278 56.93555855 35.29758278 56.93555855 34.16040039 55.80395508 C33.3227565 54.96331009 32.48511261 54.1226651 31.62208557 53.25654602 C30.7065239 52.35333115 29.79096222 51.45011627 28.84765625 50.51953125 C27.91779404 49.59154221 26.98793182 48.66355316 26.02989197 47.70744324 C24.06131341 45.74346887 22.0879231 43.78451091 20.1105957 41.8293457 C17.57033239 39.31740376 15.03886337 36.79682856 12.51049137 34.27292347 C10.10520218 31.87277849 7.69524305 29.47735935 5.28515625 27.08203125 C4.3716188 26.17274368 3.45808136 25.26345612 2.51686096 24.32661438 C1.67606491 23.49542587 0.83526886 22.66423737 -0.03100586 21.80786133 C-0.77491074 21.07078445 -1.51881561 20.33370758 -2.28526306 19.57429504 C-3.73480216 17.88728383 -3.73480216 17.88728383 -5 18 Z " fill="#020100" transform="translate(414,41)"/>
<path d="M0 0 C3.25474071 2.16982714 3.87641512 3.41578058 4.6875 7.25 C3.27299197 14.96549836 -4.26727981 20.3037442 -9.7109375 25.6328125 C-10.32678207 26.23629517 -10.94262665 26.83977783 -11.57713318 27.46154785 C-14.14971973 29.97928379 -16.72227889 32.49658758 -19.31542969 34.99316406 C-35.4888388 50.59275734 -47.29972897 67.96019399 -49 91 C-49.02545825 95.08440663 -48.8856147 99.16626135 -48.69726562 103.24609375 C-48.60745508 107.37737902 -48.64126757 109.42662228 -50.88671875 113.015625 C-53.37318656 115.35042287 -54.44460114 115.91360462 -57.8125 116.4375 C-61.5015568 115.93115887 -62.69267983 114.7448771 -65.01953125 111.8984375 C-71.39217566 99.55937302 -66.58933934 79.93188759 -62.83007812 67.47167969 C-60.63723421 60.94216445 -57.62820437 54.85113228 -54 49 C-53.46431396 48.10893555 -52.92862793 47.21787109 -52.37670898 46.29980469 C-45.892632 36.2097504 -37.57634578 28.06817175 -29.05004883 19.69335938 C-26.53428491 17.22228613 -24.03268049 14.7375368 -21.53320312 12.25 C-19.94088673 10.67108541 -18.34781584 9.09293126 -16.75390625 7.515625 C-16.00500626 6.77411194 -15.25610626 6.03259888 -14.48451233 5.26861572 C-13.44719215 4.2505484 -13.44719215 4.2505484 -12.38891602 3.21191406 C-11.78096695 2.6138092 -11.17301788 2.01570435 -10.54664612 1.3994751 C-7.06458766 -1.75124829 -4.42782829 -0.99244427 0 0 Z " fill="#F3F3F3" transform="translate(109,310)"/>
<path d="M0 0 C3.60132437 2.26750053 5.61456691 3.66580855 6.8125 7.8125 C5.95487597 11.17702503 5.16131504 12.22477343 2.89379883 14.74194336 C2.25906647 15.44656708 1.62433411 16.1511908 0.97036743 16.87716675 C-2.0024164 20.07998277 -5.0341702 23.21586364 -8.11328125 26.31640625 C-8.76773727 26.97656235 -9.4221933 27.63671844 -10.09648132 28.31687927 C-11.47073431 29.700502 -12.84638663 31.08273619 -14.22338867 32.46362305 C-16.30399426 34.5539545 -18.37366303 36.65473331 -20.44335938 38.75585938 C-27.18165679 45.54896269 -33.72807034 52.06256491 -42 57 C-42.64606201 57.3916333 -43.29212402 57.7832666 -43.95776367 58.18676758 C-45.75918554 59.22922078 -47.57675012 60.19301434 -49.4375 61.125 C-50.42907104 61.62302124 -50.42907104 61.62302124 -51.44067383 62.13110352 C-59.57494484 66.01484784 -68.23464878 68.05938156 -77 70 C-77.845625 70.20496094 -78.69125 70.40992188 -79.5625 70.62109375 C-85.60436481 71.56029389 -91.90150614 71.12221431 -98 71 C-99.31097656 70.99226563 -99.31097656 70.99226563 -100.6484375 70.984375 C-104.34723496 70.78597207 -106.49816846 69.9521735 -109 67.3125 C-111.20202935 63.66538889 -111.8838245 62.15397515 -111 58 C-109.13671875 55.3203125 -109.13671875 55.3203125 -106 53 C-102.37605819 52.47150849 -98.83390847 52.72819491 -95.1875 52.9375 C-84.99865819 53.22815223 -76.6685717 52.28040826 -67 49 C-65.4221875 48.4740625 -65.4221875 48.4740625 -63.8125 47.9375 C-47.52091056 41.82815396 -36.18658777 29.68166727 -24.3125 17.5 C-21.99792844 15.14285552 -19.68046114 12.7886248 -17.36064148 10.43664551 C-15.92909522 8.98345414 -14.50106853 7.52678526 -13.07698059 6.06628418 C-12.43838608 5.41470337 -11.79979156 4.76312256 -11.1418457 4.09179688 C-10.58149124 3.51715698 -10.02113678 2.94251709 -9.44380188 2.35046387 C-6.46958803 -0.43147484 -3.96125126 -0.45706745 0 0 Z " fill="#F3F3F3" transform="translate(197,399)"/>
<path d="M0 0 C3.01409306 1.44304314 5.10472016 2.86591868 7.453125 5.2578125 C8.071875 5.88300781 8.690625 6.50820313 9.328125 7.15234375 C9.96234375 7.80332031 10.5965625 8.45429688 11.25 9.125 C12.22453125 10.11306641 12.22453125 10.11306641 13.21875 11.12109375 C14.81711727 12.74296643 16.41061897 14.3693281 18 16 C16.40894082 19.92192331 13.71276849 22.56312317 10.75585938 25.48706055 C10.22233353 26.02248474 9.68880768 26.55790894 9.13911438 27.10955811 C7.37883782 28.87353176 5.61147782 30.63021475 3.84375 32.38671875 C2.61792152 33.61135491 1.39246271 34.83636119 0.1673584 36.0617218 C-2.39852911 38.62604638 -4.96773845 41.18697916 -7.53955078 43.74536133 C-10.84022013 47.02901429 -14.13424148 50.31923857 -17.42603302 53.61178875 C-19.95469867 56.14018288 -22.48595907 58.6659654 -25.01811218 61.19086647 C-26.23398365 62.40355078 -27.44924601 63.61684611 -28.66389465 64.83075523 C-30.35871416 66.52341322 -32.05678148 68.21274106 -33.75585938 69.90112305 C-34.51179634 70.65773979 -34.51179634 70.65773979 -35.28300476 71.42964172 C-38.04914022 74.1702766 -39.75628645 75.76310218 -43.625 76.5 C-48.7059313 75.74726944 -51.53270671 72.63733113 -55 69 C-55.57363281 68.40703125 -56.14726562 67.8140625 -56.73828125 67.203125 C-58.60970832 63.93536999 -58.40922376 61.72292589 -58 58 C-56.28014256 55.62264606 -54.76514971 53.87351671 -52.67578125 51.88110352 C-51.82722061 51.0310096 -51.82722061 51.0310096 -50.96151733 50.16374207 C-49.09462689 48.30171373 -47.20421257 46.46568267 -45.3125 44.62890625 C-44.01060434 43.3400715 -42.71024955 42.04967855 -41.41137695 40.75779724 C-37.99395334 37.3670594 -34.5560327 33.99786931 -31.11340332 30.63275146 C-27.60203159 27.19307556 -24.11047181 23.73341738 -20.6171875 20.27539062 C-13.76402692 13.49723099 -6.88904461 6.74167183 0 0 Z " fill="#CED7DB" transform="translate(201,293)"/>
<path d="M0 0 C2.95259325 1.33232076 5.04796372 2.79252048 7.34399414 5.06933594 C8.29001244 6.00105621 8.29001244 6.00105621 9.25514221 6.95159912 C9.92504684 7.62241516 10.59495148 8.2932312 11.28515625 8.984375 C11.98265488 9.6775885 12.6801535 10.370802 13.39878845 11.08502197 C14.87135311 12.55184896 16.34131105 14.02129686 17.80883789 15.49316406 C20.04904313 17.73652418 22.30221692 19.96625261 24.55664062 22.1953125 C25.98779004 23.6241883 27.41815482 25.0538505 28.84765625 26.484375 C29.51958511 27.14709412 30.19151398 27.80981323 30.88380432 28.49261475 C36.22726424 33.88911351 39.42791566 38.46292598 39.4375 46.3125 C39.45683594 47.36050781 39.47617188 48.40851563 39.49609375 49.48828125 C38.10155998 59.35982342 32.41010572 65.32101985 25.51171875 72.1171875 C24.56607626 73.06366167 23.62125327 74.01095524 22.67720032 74.95901489 C20.70045617 76.93860409 18.71530323 78.90921454 16.72338867 80.87353516 C14.21144054 83.35170292 11.71989968 85.84925032 9.23376751 88.35328197 C-3.52949908 101.19167886 -16.34368829 113.71292547 -32.6875 121.9375 C-33.38883057 122.29956543 -34.09016113 122.66163086 -34.81274414 123.03466797 C-40.61026078 125.95624074 -46.61580603 128.6760371 -53 130 C-53.66 129.67 -54.32 129.34 -55 129 C-54.06800781 128.47792969 -53.13601562 127.95585937 -52.17578125 127.41796875 C-50.88762581 126.67516379 -49.59988854 125.93163332 -48.3125 125.1875 C-47.70599609 124.85041016 -47.09949219 124.51332031 -46.47460938 124.16601562 C-31.71307407 115.54887573 -19.84298292 102.21869405 -7.86743164 90.23803711 C-5.41335715 87.78375744 -2.9456722 85.3436543 -0.47447872 82.90662861 C1.91277496 80.54704691 4.28551345 78.17305328 6.66015625 75.80078125 C7.53930191 74.93600662 8.41844757 74.07123199 9.32423401 73.18025208 C17.18556364 65.25983251 21.05031745 58.26349224 21.4375 47 C21.49808594 45.783125 21.55867188 44.56625 21.62109375 43.3125 C20.81335267 32.28403509 12.87449919 24.04690335 5.25 16.875 C3.95642578 15.62203125 3.95642578 15.62203125 2.63671875 14.34375 C1.05666777 12.81562558 -0.52951345 11.29379287 -2.12402344 9.78076172 C-3.43303198 8.53819166 -4.72377829 7.27622171 -6 6 C-4.02 4.02 -2.04 2.04 0 0 Z " fill="#535B5F" transform="translate(193,360)"/>
<path d="M0 0 C6.31806483 2.21382313 10.75445111 6.18183463 15.37817383 10.87646484 C16.06702667 11.5599147 16.75587952 12.24336456 17.46560669 12.94752502 C19.72274024 15.1922283 21.96513788 17.45102097 24.20703125 19.7109375 C25.77959076 21.28334192 27.35281815 22.85507864 28.92668152 24.42617798 C32.2152445 27.7133596 35.49675024 31.00737966 38.77319336 34.30664062 C42.96891126 38.5307768 47.18004928 42.73913046 51.39635181 46.94270897 C54.64392449 50.18332146 57.88407745 53.43127016 61.12195396 56.68156815 C62.67200958 58.23613243 64.22415014 59.78862075 65.7784214 61.33897018 C67.94933171 63.5069642 70.11026966 65.68443378 72.26879883 67.86474609 C72.90934708 68.50079269 73.54989532 69.13683929 74.20985413 69.79216003 C78.71374388 74.37166304 81.69474907 78.29634888 82.4375 84.875 C81.91949773 94.69292326 74.52529086 101.21987745 67.99365234 107.74755859 C66.37783827 109.37214631 64.79677327 111.02607716 63.21484375 112.68359375 C57.45715165 118.56717867 52.64710748 122.88375955 44 123 C42.68 123 41.36 123 40 123 C41.35229525 119.954432 42.8412098 117.95384017 45.265625 115.6796875 C45.90612793 115.06641602 46.54663086 114.45314453 47.20654297 113.82128906 C47.88088379 113.17901367 48.55522461 112.53673828 49.25 111.875 C56.81560986 104.50815528 63.96049448 97.0175513 64.375 85.9375 C64.08870268 69.1560724 46.61895259 56.45380801 35.54296875 45.33984375 C34.97581964 44.76986727 34.40867054 44.19989079 33.8243351 43.61264229 C30.83744032 40.61093953 27.84782883 37.61197653 24.85571289 34.61547852 C21.7814943 31.53572338 18.71670916 28.44675025 15.65388012 25.35567379 C13.27653419 22.95969591 10.89249853 20.57046047 8.50658607 18.18301582 C7.37304228 17.0464591 6.24198343 15.90741807 5.11354637 14.76579094 C3.53999605 13.17512729 1.95718722 11.59426166 0.37182617 10.01538086 C-0.52321121 9.11669785 -1.4182486 8.21801483 -2.34040833 7.292099 C-5.08097135 4.93021698 -7.70623595 3.46689033 -11 2 C-7.25649686 -0.49566876 -4.33405183 -0.62200654 0 0 Z " fill="#F27A00" transform="translate(413,17)"/>
<path d="M0 0 C1.33132032 -0.11094336 2.6655568 -0.18688444 4 -0.25 C4.7425 -0.29640625 5.485 -0.3428125 6.25 -0.390625 C14.29885327 0.75267802 19.58608104 6.03121823 25 11.609375 C25.7211499 12.33618469 26.4422998 13.06299438 27.18530273 13.81182861 C29.46650577 16.11526403 31.73333375 18.43226752 34 20.75 C35.55245342 22.32253523 37.10583001 23.89415963 38.66015625 25.46484375 C42.45084544 29.29942579 46.22985806 33.14521987 50 37 C48.36343809 40.4740573 46.52377389 42.68508208 43.75390625 45.37109375 C42.91666016 46.19287109 42.07941406 47.01464844 41.21679688 47.86132812 C39.45122934 49.574929 37.68560459 51.28847093 35.91992188 53.00195312 C35.08138672 53.82501953 34.24285156 54.64808594 33.37890625 55.49609375 C32.22757202 56.61262329 32.22757202 56.61262329 31.05297852 57.75170898 C25.44560892 63.89254221 24.57620968 70.01572592 24.65234375 78.0859375 C25.54372636 85.5575266 30.02438594 91.59790473 35 97 C29.2894268 98.21614059 25.11982932 98.40825101 19.984375 95.4296875 C13.99158565 91.11204793 9.00456178 86.26653646 7 79 C6.14521558 73.63336377 6.0958084 69.96037053 9.29296875 65.43359375 C13.98991687 59.50753771 19.49341903 54.29430318 24.875 49 C25.95619634 47.92885677 27.03692927 46.85724556 28.1171875 45.78515625 C30.73947435 43.18469056 33.36796378 40.59060189 36 38 C31.82753927 33.01682592 27.47622088 28.35234182 22.8515625 23.7890625 C22.19417084 23.13545746 21.53677917 22.48185242 20.85946655 21.80844116 C18.78374371 19.74482616 16.70478389 17.68452156 14.625 15.625 C11.86436025 12.89085028 9.1069825 10.15347128 6.3515625 7.4140625 C5.71417145 6.78496979 5.0767804 6.15587708 4.42007446 5.50772095 C2.92780268 4.0239296 1.46096438 2.51462698 0 1 C0 0.67 0 0.34 0 0 Z " fill="#535B5F" transform="translate(102,280)"/>
</svg>
